<svg width="167" height="48" viewBox="0 0 167 48" fill="none" xmlns="http://www.w3.org/2000/svg">
<path d="M25.3666 21.7469L22.3765 31.0251C23.5241 32.3055 24.1398 33.9755 24.0885 35.7131C24.0862 35.8204 24.0792 35.9277 24.0698 36.0443C24.0488 36.2869 24.0162 36.5341 23.9719 36.7883L23.9672 36.8257C23.9532 36.9516 23.9462 37.0799 23.9439 37.2105C23.9439 37.2548 23.9415 37.2991 23.9439 37.3155C23.9042 39.4309 24.7136 41.4157 26.2226 42.9038C27.3491 44.021 28.7672 44.7487 30.3229 45.0099C30.6681 45.0682 31.0203 45.1032 31.3771 45.1149C31.4564 45.1172 31.5357 45.1195 31.6127 45.1195C31.7153 45.1195 31.8179 45.1195 31.9229 45.1125C33.8401 45.0379 35.5847 44.2542 36.8931 43.0064C38.2016 41.7586 39.0762 40.056 39.2488 38.1434C39.3538 36.9889 39.2022 35.8601 38.8057 34.7895C38.766 34.6776 38.724 34.5703 38.6797 34.4676C37.8074 32.3965 36.0792 30.8175 33.9427 30.1388C33.3853 29.9615 32.7695 29.8776 32.0652 29.8776H32.0232C31.9929 29.8776 31.9625 29.8776 31.9322 29.8776C31.6173 29.8776 31.2955 29.8542 31.0016 29.8099C29.6745 29.6257 28.443 29.0472 27.4424 28.1446C25.973 26.8198 25.1637 24.9236 25.2243 22.9458C25.236 22.5423 25.285 22.1411 25.3689 21.7493M0.0045166 41.8239C0.0954787 41.8682 1.94971 42.7475 4.57595 43.2093C4.06516 43.102 3.5567 42.9691 3.05058 42.8058L0.0045166 41.8239Z" fill="#73BDB8"/>
<path d="M24.9983 0.0256577C26.7918 0.121284 28.6694 0.517786 30.6262 1.21516L31.8414 1.64898L31.8787 1.53703L29.509 0.774346C28.0117 0.291547 26.4956 0.0489813 24.9983 0.0256577ZM31.8391 1.65598L30.6309 2.10379C30.6309 2.10379 29.4671 2.54228 28.1166 3.49388C27.0554 4.24257 25.6606 5.46706 24.716 7.21633C24.9656 7.37027 25.2082 7.54053 25.4391 7.72945C27.0344 9.03091 27.9464 11.0227 27.8857 13.0566C27.8671 13.6793 27.7574 14.3044 27.5569 14.9108L25.6303 20.8397C25.572 21.0029 25.523 21.1522 25.4811 21.3015C25.4391 21.4484 25.4018 21.5953 25.3714 21.7446L31.8391 1.65598ZM3.79475 30.0478L0 41.8216H0.00466472H0.00233236C0.00233236 41.8216 1.87988 41.0356 3.23965 40.0956C4.30787 39.3563 5.71895 38.1411 6.67988 36.4012C6.53061 36.3009 6.38134 36.1936 6.23907 36.077C4.63207 34.7942 3.69913 32.8117 3.73878 30.7732C3.74344 30.5306 3.7621 30.2881 3.79475 30.0478ZM22.3324 30.9714L22.1085 31.6571C20.5854 36.3452 19.0227 39.3959 13.8286 42.0688C11.7761 43.1254 9.63265 43.4846 7.66414 43.4846C6.5656 43.4846 5.5207 43.3726 4.57609 43.207C5.58134 43.4169 6.58892 43.5195 7.58717 43.5195C13.8332 43.5195 19.6385 39.5289 21.656 33.2641L22.379 31.0227C22.365 31.0064 22.3487 30.9878 22.3324 30.9714Z" fill="#8CC7E0"/>
<path d="M24.7137 7.21632C24.5924 7.44023 24.4805 7.67113 24.3755 7.9137C21.8706 13.698 18.0921 27.5499 16.9913 31.6595C16.786 32.4222 16.6741 32.8606 16.6741 32.863C16.4245 33.6536 16.049 34.3673 15.5499 34.9971C14.302 36.5784 12.3662 37.516 10.3557 37.516C10.3114 37.516 10.2671 37.516 10.2204 37.5137C8.93994 37.488 7.72478 37.1055 6.67988 36.4035C5.71895 38.1434 4.30787 39.3586 3.23965 40.098C1.87755 41.0356 0 41.8216 0 41.8216C0 41.8216 0 41.8216 0.00466472 41.8216L3.05073 42.8035C3.55685 42.9668 4.06764 43.102 4.57609 43.207C5.5207 43.3726 6.5656 43.4846 7.66414 43.4846C9.63265 43.4846 11.7761 43.123 13.8286 42.0688C19.0227 39.3959 20.5854 36.3429 22.1085 31.6571L22.3324 30.9714C22.3487 30.9878 22.3627 31.0064 22.379 31.0227L25.3668 21.7446C25.3994 21.5953 25.4367 21.4461 25.4764 21.3015C25.5184 21.1522 25.5673 21.0029 25.6257 20.8396L27.5545 14.9108C27.7528 14.3044 27.8624 13.6816 27.8834 13.0566C27.9464 11.0227 27.0321 9.02857 25.4367 7.72944C25.2058 7.54052 24.9633 7.37026 24.7137 7.21632Z" fill="#4DA8BF"/>
<path d="M24.1377 0.00233236C21.7657 0.00233236 19.5476 0.54344 17.5044 1.62566C13.7843 3.59184 10.8036 7.41458 9.32718 12.1143L4.04438 28.9166C3.92776 29.2875 3.84146 29.6676 3.79248 30.0478L10.0012 10.7755C12.119 4.20758 18.2041 0.0233236 24.7534 0.0233236C24.835 0.0233236 24.919 0.0233236 25.0006 0.0233236C24.7114 0.00699708 24.4246 0 24.14 0M31.8415 1.64898V1.65598L31.8508 1.65131H31.8415V1.64898Z" fill="white"/>
<path d="M24.7532 0.0233231C18.2063 0.0233231 12.1188 4.20758 10.0034 10.7755L3.79464 30.0478C3.76199 30.2904 3.74333 30.5329 3.73866 30.7732C3.69668 32.8117 4.62963 34.7942 6.23896 36.077C6.38123 36.1913 6.52817 36.2985 6.67977 36.4012C6.80105 36.1819 6.91534 35.9534 7.02263 35.7155C9.58589 29.9592 13.4996 16.1423 14.6378 12.0443C14.85 11.2793 14.9713 10.8431 14.9713 10.8408C15.2279 10.0548 15.6104 9.34344 16.1188 8.71837C17.369 7.16268 19.2839 6.25073 21.2734 6.25073C21.3387 6.25073 21.4063 6.25073 21.4716 6.25306C22.6378 6.28805 23.7457 6.61691 24.7183 7.21399C25.6629 5.46472 27.0576 4.24023 28.1188 3.49154C29.4716 2.53994 30.6238 2.10845 30.6331 2.10146L31.8436 1.65364V1.64665L30.6308 1.21283C28.6716 0.517784 26.7941 0.121282 24.9981 0.0256554C24.9165 0.0256554 24.8325 0.0256554 24.7509 0.0256554" fill="#BADEED"/>
<path d="M21.2686 6.25306C19.2791 6.25306 17.3642 7.16501 16.1141 8.7207C15.6056 9.34577 15.2255 10.0548 14.9689 10.8431C14.9689 10.8455 14.8476 11.2816 14.6354 12.0466C13.4972 16.1423 9.58349 29.9615 7.02023 35.7178C6.91527 35.9557 6.80098 36.1843 6.67737 36.4035C7.72227 37.1055 8.93743 37.4904 10.2179 37.5137C10.2645 37.5184 10.3089 37.5184 10.3532 37.5184C12.3637 37.5184 14.2995 36.5808 15.5473 34.9994C16.0488 34.3697 16.4243 33.656 16.6715 32.8653C16.6715 32.863 16.7858 32.4245 16.9887 31.6618C18.0896 27.5522 21.868 13.698 24.373 7.91603C24.478 7.6758 24.5899 7.44256 24.7112 7.21866C23.7386 6.62157 22.6307 6.29271 21.4645 6.25772C21.3969 6.25772 21.3316 6.25539 21.2663 6.25539" fill="#94CCD9"/>
<path d="M39.2536 20.3918C39.2536 18.0945 37.9125 16.6787 35.965 16.6787C34.0175 16.6787 32.7113 18.0758 32.7113 20.3918C32.7113 22.7079 34.0338 24.1236 36 24.1236C37.9661 24.1236 39.2536 22.7079 39.2536 20.3918ZM30.6519 20.3918C30.6519 16.772 32.8583 14.9341 35.4682 14.9341C37.1218 14.9341 38.5935 15.7434 39.2 17.1942V16.0536C39.2 15.4659 39.5312 15.1347 40.1189 15.1347H40.3405C40.9282 15.1347 41.2594 15.4659 41.2594 16.0536V24.7114C41.2594 25.2991 40.9282 25.6303 40.3405 25.6303H40.1189C39.5312 25.6303 39.2 25.2991 39.2 24.7114V23.6455C38.6122 25.0612 37.1242 25.8869 35.4868 25.8869C32.8769 25.8869 30.6542 24.0303 30.6542 20.3918" fill="#73BDB8"/>
<path d="M43.7715 24.73V12.6367C43.7715 12.049 44.1027 11.7178 44.6904 11.7178H44.9307C45.5184 11.7178 45.8496 12.049 45.8496 12.6367V24.73C45.8496 25.3178 45.5184 25.649 44.9307 25.649H44.6904C44.1027 25.649 43.7715 25.3178 43.7715 24.73Z" fill="#73BDB8"/>
<path d="M50.5868 27.9627L51.6527 25.5743L47.5734 16.2006C47.2981 15.5755 47.592 15.1347 48.2521 15.1347H48.6019C49.1174 15.1347 49.4649 15.3749 49.6678 15.8507L52.7559 23.3493L55.8439 15.8507C56.0468 15.3726 56.3943 15.1347 56.9098 15.1347H57.2223C57.9197 15.1347 58.2136 15.5755 57.9384 16.2006L52.6812 28.3499C52.4783 28.8467 52.1121 29.0472 51.5967 29.0472H51.2468C50.5844 29.0472 50.3092 28.6064 50.5844 27.9627" fill="#73BDB8"/>
<path d="M67.4449 19.3073C67.298 17.635 66.1574 16.5691 64.3009 16.5691C62.4443 16.5691 61.3061 17.488 61.0659 19.3073H67.4426H67.4449ZM58.9528 20.3918C58.9528 17.1568 61.1219 14.9341 64.2635 14.9341C67.4052 14.9341 69.2618 16.9749 69.3924 20.007C69.4111 20.6134 69.0612 20.9259 68.4735 20.9259H61.0122C61.0845 22.9668 62.3533 24.1236 64.3942 24.1236C65.5347 24.1236 66.2507 23.8297 66.9131 23.242C67.3166 22.8921 67.5755 22.5983 68.0886 22.7265L68.3102 22.7825C68.9539 22.9481 69.0822 23.298 68.7324 23.8111C67.8134 25.1708 66.3254 25.8519 64.3592 25.8519C61.0869 25.8519 58.9551 23.6828 58.9551 20.3942" fill="#73BDB8"/>
<path d="M79.6828 20.3918C79.6828 18.0945 78.3417 16.6787 76.3918 16.6787C74.442 16.6787 73.1382 18.0758 73.1382 20.3918C73.1382 22.7079 74.4606 24.1236 76.4268 24.1236C78.393 24.1236 79.6805 22.7079 79.6805 20.3918M71.0811 20.3918C71.0811 16.772 73.2875 14.9341 75.8974 14.9341C77.551 14.9341 79.0227 15.7434 79.6292 17.1942V16.0536C79.6292 15.4659 79.9604 15.1347 80.5481 15.1347H80.7697C81.3574 15.1347 81.6886 15.4659 81.6886 16.0536V24.7114C81.6886 25.2991 81.3574 25.6303 80.7697 25.6303H80.5481C79.9604 25.6303 79.6292 25.2991 79.6292 24.7114V23.6455C79.0414 25.0612 77.5534 25.8869 75.916 25.8869C73.3061 25.8869 71.0834 24.0303 71.0834 20.3918" fill="#73BDB8"/>
<path d="M51.0368 44.7464C48.336 44.7464 47.1045 43.6245 47.1045 40.4082V35.6851H46.4981C45.9103 35.6851 45.5791 35.3913 45.5791 34.8758C45.5791 34.3604 45.8543 34.0851 46.3511 34.0851H47.1045V32.9819C47.1045 32.4315 47.3797 32.1003 47.9138 31.9907L48.1704 31.9347C48.8141 31.7878 49.1803 32.1003 49.1803 32.744V34.0851H51.368C51.9558 34.0851 52.287 34.3604 52.287 34.8758C52.287 35.3913 51.9558 35.6851 51.368 35.6851H49.1803V40.1703C49.1803 42.3394 49.7494 43.0927 51.3494 43.0927C51.9185 43.0927 52.2916 43.2933 52.3429 43.7901C52.4013 44.3499 52.154 44.6717 51.5709 44.7277C51.3867 44.744 51.2024 44.7464 51.0368 44.7464Z" fill="#73BDB8"/>
<path d="M53.9942 43.6805V31.5872C53.9942 30.9994 54.3254 30.6682 54.9131 30.6682H55.1347C55.7224 30.6682 56.0536 30.9994 56.0536 31.5872V35.9977C56.4758 34.9504 57.6163 33.9032 59.4892 33.9032C62.2647 33.9032 63.7341 35.4099 63.7341 38.9015V43.6805C63.7341 44.2682 63.4029 44.5994 62.8152 44.5994H62.5936C62.0058 44.5994 61.6746 44.2682 61.6746 43.6805V39.0671C61.6746 36.7137 60.793 35.6851 58.8431 35.6851C56.8933 35.6851 56.049 36.9353 56.049 39.305V43.6805C56.049 44.2682 55.7178 44.5994 55.13 44.5994H54.9085C54.3207 44.5994 53.9895 44.2682 53.9895 43.6805" fill="#73BDB8"/>
<path d="M74.064 38.2577C73.9171 36.5854 72.7765 35.5195 70.9223 35.5195C69.0681 35.5195 67.9276 36.4385 67.6873 38.2577H74.064ZM65.5742 39.3423C65.5742 36.1073 67.7433 33.8846 70.885 33.8846C74.0267 33.8846 75.8856 35.9254 76.0139 38.9574C76.0325 39.5639 75.6827 39.8764 75.0949 39.8764H67.6337C67.706 41.9172 68.9748 43.0741 71.0156 43.0741C72.1561 43.0741 72.8722 42.7802 73.5346 42.1924C73.9381 41.8426 74.197 41.5487 74.7101 41.677L74.9293 41.733C75.5731 41.8985 75.7013 42.2484 75.3515 42.7615C74.4325 44.1213 72.9445 44.8023 70.9783 44.8023C67.706 44.8023 65.5742 42.6332 65.5742 39.3446" fill="#73BDB8"/>
<path d="M82.8502 33.9569C83.4752 33.9569 83.7878 34.3604 83.7131 34.9504L83.6945 35.0974C83.6385 35.6851 83.291 35.9067 82.6846 35.9067C80.9563 35.944 80.1306 37.1942 80.1306 39.3983V43.6805C80.1306 44.2682 79.7994 44.5994 79.2117 44.5994H78.9924C78.4047 44.5994 78.0735 44.2682 78.0735 43.6805V35.0041C78.0735 34.4163 78.4047 34.0851 78.9924 34.0851H79.2117C79.7994 34.0851 80.1306 34.3977 80.1306 34.9668V35.8484C80.4618 34.9108 81.3085 33.9545 82.8502 33.9545V33.9569Z" fill="#73BDB8"/>
<path d="M92.8278 39.3423C92.8278 37.0449 91.4867 35.6292 89.5392 35.6292C87.5917 35.6292 86.2856 37.0262 86.2856 39.3423C86.2856 41.6583 87.608 43.0741 89.5742 43.0741C91.5404 43.0741 92.8278 41.6583 92.8278 39.3423ZM84.2261 39.3423C84.2261 35.7201 86.4325 33.8846 89.0424 33.8846C90.696 33.8846 92.1678 34.6939 92.7742 36.1446V35.0041C92.7742 34.4163 93.1054 34.0851 93.6931 34.0851H93.9147C94.5025 34.0851 94.8337 34.4163 94.8337 35.0041V43.6618C94.8337 44.2496 94.5025 44.5808 93.9147 44.5808H93.6931C93.1054 44.5808 92.7742 44.2496 92.7742 43.6618V42.5959C92.1864 44.0117 90.6984 44.8373 89.0611 44.8373C86.4511 44.8373 84.2284 42.9808 84.2284 39.3423" fill="#73BDB8"/>
<path d="M105.894 39.3236C105.894 37.0076 104.588 35.5918 102.64 35.5918C100.693 35.5918 99.3492 36.9889 99.3492 39.3236C99.3492 41.6583 100.672 43.0367 102.603 43.0367C104.534 43.0367 105.894 41.621 105.894 39.3236ZM97.348 47.0811V35.0064C97.348 34.4187 97.6792 34.0875 98.267 34.0875H98.4885C99.0763 34.0875 99.4075 34.4187 99.4075 35.0064V36.0723C99.9579 34.7312 101.374 33.8659 103.139 33.8659C105.602 33.8659 107.956 35.5195 107.956 39.3236C107.956 43.1277 105.584 44.765 103.123 44.765C101.36 44.765 99.9626 43.8834 99.4098 42.5423V47.0811C99.4098 47.6688 99.0786 48 98.4909 48H98.2693C97.6815 48 97.3504 47.6688 97.3504 47.0811" fill="#73BDB8"/>
<path d="M118.134 38.2577C117.987 36.5854 116.847 35.5195 114.99 35.5195C113.134 35.5195 111.995 36.4385 111.755 38.2577H118.132H118.134ZM109.642 39.3423C109.642 36.1073 111.811 33.8846 114.953 33.8846C118.094 33.8846 119.951 35.9254 120.082 38.9574C120.1 39.5639 119.75 39.8764 119.163 39.8764H111.701C111.774 41.9172 113.043 43.0741 115.083 43.0741C116.224 43.0741 116.94 42.7802 117.602 42.1924C118.006 41.8426 118.265 41.5487 118.778 41.677L118.999 41.733C119.643 41.8985 119.771 42.2484 119.422 42.7615C118.503 44.1213 117.015 44.8023 115.048 44.8023C111.776 44.8023 109.644 42.6332 109.644 39.3446" fill="#73BDB8"/>
<path d="M130.741 34.0875C131.328 34.0875 131.66 34.4187 131.66 35.0064V43.6828C131.66 44.2706 131.328 44.6018 130.741 44.6018H130.519C129.931 44.6018 129.6 44.2706 129.6 43.6828V42.6379C129.122 43.8577 127.928 44.786 126.165 44.786C123.261 44.786 121.92 43.1137 121.92 39.7878V35.0087C121.92 34.421 122.251 34.0898 122.839 34.0898H123.06C123.648 34.0898 123.979 34.421 123.979 35.0087V39.6222C123.979 41.9195 124.861 43.0041 126.811 43.0041C128.761 43.0041 129.605 41.698 129.605 39.3843V35.0111C129.605 34.4233 129.936 34.0921 130.524 34.0921H130.745L130.741 34.0875Z" fill="#73BDB8"/>
<path d="M138.717 44.7464C136.017 44.7464 134.785 43.6245 134.785 40.4082V35.6851H134.179C133.591 35.6851 133.26 35.3913 133.26 34.8758C133.26 34.3604 133.535 34.0851 134.032 34.0851H134.785V32.9819C134.785 32.4315 135.06 32.1003 135.594 31.9907L135.851 31.9347C136.495 31.7878 136.861 32.1003 136.861 32.744V34.0851H139.049C139.636 34.0851 139.968 34.3604 139.968 34.8758C139.968 35.3913 139.636 35.6851 139.049 35.6851H136.861V40.1703C136.861 42.3394 137.43 43.0927 139.03 43.0927C139.599 43.0927 139.972 43.2933 140.023 43.7901C140.082 44.3499 139.835 44.6717 139.251 44.7277C139.067 44.744 138.883 44.7464 138.717 44.7464Z" fill="#73BDB8"/>
<path d="M141.672 43.6805V35.0064C141.672 34.4187 141.996 34.0875 142.575 34.0875H142.81C143.387 34.0875 143.713 34.4187 143.713 35.0064V43.6805C143.713 44.2682 143.389 44.5994 142.81 44.5994H142.575C141.999 44.5994 141.672 44.2682 141.672 43.6805ZM141.5 31.5685C141.5 30.8711 142.015 30.4653 142.712 30.4653C143.356 30.4653 143.925 30.8688 143.925 31.5685C143.925 32.2682 143.356 32.6717 142.712 32.6717C142.015 32.6717 141.5 32.2682 141.5 31.5685Z" fill="#73BDB8"/>
<path d="M145.81 39.3423C145.81 36.1633 147.979 33.8846 151.011 33.8846C153.218 33.8846 154.706 34.6939 155.534 36.2542C155.846 36.842 155.59 37.2641 155.018 37.3761L154.871 37.4134C154.356 37.523 154.008 37.3201 153.696 36.863C153.108 36.035 152.245 35.6315 151.104 35.6315C149.194 35.6315 147.869 37.1382 147.869 39.3446C147.869 41.551 149.192 43.0391 151.104 43.0391C152.208 43.0391 153.071 42.6169 153.658 41.8262C153.971 41.3668 154.302 41.1825 154.818 41.2758L154.89 41.2945C155.534 41.4227 155.809 41.8099 155.552 42.3417C154.743 43.923 153.18 44.8047 151.013 44.8047C148.035 44.8047 145.812 42.5819 145.812 39.3469" fill="#73BDB8"/>
<path d="M162.316 44.7837C160.553 44.7837 158.692 44.077 157.81 42.9644C157.434 42.4886 157.619 41.9918 158.232 41.8076L158.416 41.7516C158.82 41.6303 159.097 41.642 159.629 42.1201C160.361 42.7755 161.357 43.0181 162.316 43.0181C163.846 43.0181 164.756 42.4723 164.756 41.5487C164.756 39.123 157.941 41.0496 157.941 36.9539C157.941 35.0158 159.897 33.9032 162.155 33.9032C163.517 33.9032 165.224 34.4537 166.139 35.4099C166.57 35.8624 166.421 36.3709 165.826 36.5481L165.642 36.6041C165.145 36.7534 164.893 36.5714 164.41 36.2799C163.722 35.8624 162.981 35.5942 162.19 35.5942C160.865 35.5942 159.965 36.0327 159.965 36.8583C159.965 39.2093 166.836 37.2408 166.836 41.4951C166.836 43.4496 164.949 44.7837 162.318 44.7837H162.316Z" fill="#73BDB8"/>
</svg>
