<svg width="142" height="40" viewBox="0 0 142 40" fill="none" xmlns="http://www.w3.org/2000/svg">
<path fill-rule="evenodd" clip-rule="evenodd" d="M28.7816 25.1219C30.6755 25.6626 32.2307 27.0025 33.0509 28.7969L33.0489 28.7929C33.0905 28.8772 33.1321 28.9751 33.1697 29.0731C33.5442 29.9957 33.7066 30.983 33.6472 31.9978C33.4491 35.3612 30.7647 38.0744 27.4067 38.3075C27.2482 38.3192 27.0877 38.3251 26.9272 38.3251C26.6162 38.3251 26.3052 38.3036 26.0001 38.2605C24.6272 38.0724 23.3632 37.471 22.3449 36.5229C20.9859 35.2613 20.2232 33.5453 20.1974 31.6941V31.5923C20.1974 31.4786 20.1994 31.3631 20.2073 31.2514L20.2133 31.2044C20.245 30.9928 20.2668 30.7852 20.2747 30.5873C20.2826 30.4874 20.2826 30.4012 20.2826 30.3131C20.2826 28.9692 19.8032 27.692 18.9434 26.691L18.8661 26.9574C17.6755 31.0418 15.1713 34.3975 11.9917 36.1664C8.72679 37.9823 4.91315 38.1821 0.655747 36.7599L0.596314 36.7364L0 36.4622L4.83787 19.9405L7.55397 10.618C8.74462 6.53359 11.2487 3.17793 14.4284 1.40902C17.5645 -0.336392 20.6313 -0.45001 25.0115 1.01135L26.0575 1.362L25.8931 1.48933L26.1447 1.55986L23.2939 11.6405C23.28 11.6914 23.2662 11.7424 23.2503 11.7933L21.713 17.2274L21.7011 17.2235L21.5782 17.6564C21.5386 17.7759 21.503 17.8974 21.4693 18.0286C21.3603 18.4694 21.3029 18.9297 21.3029 19.392C21.3029 21.0277 22.0161 22.5733 23.2622 23.6292C24.1101 24.3501 25.1363 24.7948 26.2339 24.9143C26.5033 24.9436 26.7945 24.9554 27.0758 24.9436C27.7157 24.9182 28.2704 24.9769 28.7816 25.1219ZM22.8838 8.71388L24.6648 2.41787H24.6628C24.5793 2.47965 24.4831 2.55104 24.3729 2.63291C24.193 2.76651 23.9755 2.928 23.7139 3.12113C22.8521 3.75582 21.7288 4.78426 20.972 6.22408C20.9753 6.22647 20.9784 6.22879 20.9815 6.23106C20.9935 6.23991 21.0046 6.24802 21.0156 6.25738C21.6852 6.77062 22.4123 7.68152 22.8838 8.71388ZM27.3254 37.138C30.0891 36.946 32.298 34.7089 32.4625 31.9331L32.4724 31.9292C32.5219 31.0888 32.3872 30.2739 32.0742 29.504C32.0445 29.4237 32.0147 29.3552 31.9811 29.2866C31.2996 27.7958 30.0178 26.691 28.4606 26.2463C28.0743 26.1366 27.6404 26.0916 27.1333 26.1131C26.7965 26.1288 26.4359 26.1151 26.1071 26.0779C24.7738 25.9329 23.5217 25.3922 22.4935 24.5166C20.9859 23.2394 20.1202 21.3686 20.1202 19.3881C20.1202 18.8318 20.1875 18.2754 20.3222 17.7367C20.3618 17.582 20.4035 17.439 20.449 17.2999L21.8972 12.2027H21.9032L22.1092 11.4701L22.1151 11.4525L22.1468 11.3428C22.446 10.1302 21.5386 8.28095 20.4867 7.34458C18.4659 12.5534 15.6428 23.8349 14.8048 27.2513C14.6424 27.9075 14.5532 28.2836 14.5532 28.2836L14.5453 28.311C14.3472 28.9928 14.0282 29.6255 13.6003 30.1936C12.5048 31.6452 10.7634 32.511 8.94669 32.511C7.88482 32.511 6.85068 32.225 5.95125 31.6863L5.56098 31.4512L5.68975 31.0183C5.74126 30.8479 10.7594 13.8424 11.6232 10.3202C11.7836 9.66396 11.8748 9.28785 11.8748 9.28785L11.8827 9.26042C12.0808 8.57871 12.3998 7.94402 12.8277 7.37789C13.9232 5.92632 15.6646 5.06047 17.4813 5.06047C18.353 5.06047 19.195 5.24657 19.9617 5.60897C20.8215 4.01244 22.0577 2.88018 23.0106 2.17888C23.2146 2.02804 23.391 1.89679 23.5435 1.78317C20.0924 0.807625 17.5625 1.01135 15.0129 2.42962C12.1046 4.0477 9.80253 7.14869 8.69905 10.9392L1.44225 35.7765C5.20438 36.9441 8.55641 36.7305 11.4132 35.1418C14.3214 33.5238 16.6235 30.4208 17.727 26.6322L18.3332 24.5479L19.0325 25.1278C20.5837 26.4128 21.4733 28.3032 21.4733 30.315C21.4733 30.4287 21.4713 30.5442 21.4633 30.6559C21.4534 30.8733 21.4316 31.1123 21.394 31.3572C21.3881 31.4355 21.3881 31.5139 21.3881 31.5942V31.6706C21.4079 33.2045 22.0379 34.6247 23.1612 35.6688C23.9992 36.4485 25.0392 36.9441 26.1665 37.0988C26.5469 37.1517 26.9371 37.1654 27.3254 37.138ZM13.6439 26.9751C14.4978 23.4882 17.41 11.854 19.4664 6.68247L19.4684 6.68051C18.8542 6.38667 18.1787 6.23387 17.4774 6.23387C16.0331 6.23387 14.6483 6.92341 13.7766 8.07918C13.4359 8.52974 13.1843 9.03123 13.0238 9.57189L13.0226 9.57688C13.0024 9.6615 12.9158 10.0228 12.7742 10.5964C11.9738 13.862 7.78576 28.0956 6.96162 30.8929C7.57378 31.1828 8.25132 31.3356 8.94273 31.3356C10.387 31.3356 11.7698 30.6461 12.6434 29.4903C12.9822 29.0417 13.2358 28.5402 13.3943 27.9996C13.4121 27.9251 13.4993 27.5608 13.6439 26.9751Z" fill="#4DA8BF"/>
<path d="M38.17 10.1282H38.3741C38.804 10.1282 39.1547 10.475 39.1547 10.9V21.0571C39.1547 21.4822 38.804 21.8289 38.3741 21.8289H38.17C37.7401 21.8289 37.3895 21.4822 37.3895 21.0571V10.9C37.3895 10.475 37.7401 10.1282 38.17 10.1282Z" fill="#4DA8BF"/>
<path fill-rule="evenodd" clip-rule="evenodd" d="M34.4713 12.9981H34.2851C33.7858 12.9981 33.5045 13.2762 33.5045 13.7699V14.7278C32.9894 13.5074 31.7413 12.8296 30.3347 12.8296C28.1179 12.8296 26.2438 14.3732 26.2438 17.4135C26.2438 20.4538 28.1337 22.0288 30.3486 22.0288C31.7374 22.0288 33.0033 21.3333 33.5025 20.1462V21.0414C33.5025 21.5351 33.7839 21.8133 34.2831 21.8133H34.4713C34.9705 21.8133 35.2519 21.5351 35.2519 21.0414V13.7699C35.2519 13.2762 34.9705 12.9981 34.4713 12.9981ZM30.7884 20.5478C29.1184 20.5478 27.9951 19.3744 27.9951 17.4135C27.9951 15.4526 29.1183 14.2949 30.7587 14.2949C32.3991 14.2949 33.5521 15.484 33.5521 17.4135C33.5521 19.3431 32.4288 20.5478 30.7884 20.5478Z" fill="#4DA8BF"/>
<path d="M48.5491 12.9981H48.8166C49.4089 12.9981 49.6585 13.3683 49.4248 13.8933L44.9593 24.0974C44.787 24.5127 44.4759 24.6831 44.0381 24.6831H43.7409C43.1783 24.6831 42.9445 24.3129 43.1783 23.7722L44.0837 21.7663L40.6187 13.8933C40.383 13.3683 40.6326 12.9981 41.1952 12.9981H41.4924C41.9282 12.9981 42.2254 13.1979 42.3978 13.5995L45.0207 19.8974L47.6437 13.5995C47.8161 13.1998 48.1113 12.9981 48.5491 12.9981Z" fill="#4DA8BF"/>
<path fill-rule="evenodd" clip-rule="evenodd" d="M58.5894 20.2853C58.8865 19.8524 58.7776 19.5585 58.2308 19.4214L58.0426 19.3744C57.6495 19.2777 57.4337 19.4667 57.1457 19.719C57.1129 19.7477 57.0791 19.7773 57.0441 19.8073C56.4815 20.301 55.8733 20.5478 54.9045 20.5478C53.171 20.5478 52.0953 19.5762 52.0319 17.8621H58.3695C58.8687 17.8621 59.1659 17.5996 59.15 17.0903C59.0411 14.5437 57.3848 12.8296 54.7935 12.8296C52.2023 12.8296 50.2826 14.6984 50.2826 17.4135C50.2826 20.1286 52.0933 21.9974 54.8728 21.9974C56.5429 21.9974 57.8088 21.4274 58.5874 20.2833L58.5894 20.2853ZM54.8282 14.2028C56.4046 14.2032 57.371 15.0983 57.4978 16.5026H52.0814C52.2854 14.975 53.329 14.2032 54.8282 14.2028Z" fill="#4DA8BF"/>
<path fill-rule="evenodd" clip-rule="evenodd" d="M67.8471 20.1462C67.3478 21.3333 66.0819 22.0288 64.6932 22.0288H64.6912C62.4763 22.0288 60.5863 20.4538 60.5863 17.4135C60.5863 14.3732 62.4604 12.8296 64.6773 12.8296C66.0839 12.8296 67.332 13.5074 67.8471 14.7278V13.7699C67.8471 13.2762 68.1284 12.9981 68.6276 12.9981H68.8158C69.3151 12.9981 69.5964 13.2762 69.5964 13.7699V21.0414C69.5964 21.5351 69.3151 21.8133 68.8158 21.8133H68.6276C68.1284 21.8133 67.8471 21.5351 67.8471 21.0414V20.1462ZM67.8946 17.4135C67.8946 15.4843 66.754 14.2953 65.1003 14.2949C63.4604 14.2953 62.3376 15.453 62.3376 17.4135C62.3376 19.3744 63.4906 20.5478 65.131 20.5478C66.7713 20.5478 67.8946 19.3431 67.8946 17.4135Z" fill="#4DA8BF"/>
<path d="M43.9073 35.8784C42.5483 35.8784 42.0649 35.2457 42.0649 33.4239V29.6568H43.9232C44.4224 29.6568 44.7037 29.41 44.7037 28.9771C44.7037 28.5442 44.4224 28.313 43.9232 28.313H42.0649V27.1866C42.0649 26.6459 41.7519 26.3834 41.2071 26.5069L40.9891 26.5539C40.5355 26.6459 40.3017 26.9241 40.3017 27.3864V28.313H39.6618C39.2398 28.313 39.0061 28.5442 39.0061 28.9771C39.0061 29.41 39.2874 29.6568 39.7866 29.6568H40.3017V33.6237C40.3017 36.325 41.3477 37.2673 43.6418 37.2673C43.7825 37.2673 43.939 37.2653 44.0955 37.2516C44.5908 37.2046 44.8008 36.9343 44.7513 36.4641C44.7077 36.0469 44.3927 35.8784 43.9073 35.8784Z" fill="#4DA8BF"/>
<path d="M47.9052 29.9174C48.2638 29.0378 49.2306 28.1583 50.8234 28.1583H50.8274C53.1849 28.1583 54.433 29.4237 54.433 32.3563V36.3701C54.433 36.8638 54.1517 37.1419 53.6524 37.1419H53.4642C52.965 37.1419 52.6837 36.8638 52.6837 36.3701V32.4953C52.6837 30.5188 51.9189 29.6549 50.2786 29.6549C48.6382 29.6549 47.9052 30.7049 47.9052 32.6951V36.3701C47.9052 36.8638 47.6239 37.1419 47.1247 37.1419H46.9365C46.4372 37.1419 46.1559 36.8638 46.1559 36.3701V26.213C46.1559 25.7194 46.4372 25.4412 46.9365 25.4412H47.1247C47.6239 25.4412 47.9052 25.7194 47.9052 26.213V29.9174Z" fill="#4DA8BF"/>
<path fill-rule="evenodd" clip-rule="evenodd" d="M60.5011 28.1445C57.8326 28.1445 55.9902 30.0114 55.9902 32.7284C55.9902 35.4455 57.8009 37.3123 60.5804 37.3123C62.2505 37.3123 63.5164 36.7423 64.295 35.5983C64.5921 35.1653 64.4832 34.8715 63.9364 34.7344L63.7502 34.6874C63.3571 34.5906 63.1413 34.7797 62.8533 35.032L62.8531 35.0321L62.8219 35.0594C62.7991 35.0794 62.7757 35.0997 62.7517 35.1203C62.189 35.6139 61.5809 35.8608 60.6121 35.8608C58.8786 35.8608 57.8029 34.8891 57.7395 33.1751H64.077C64.5763 33.1751 64.8735 32.9126 64.8576 32.4032C64.7486 29.8566 63.0924 28.1426 60.5011 28.1426V28.1445ZM57.785 31.8175C57.9871 30.2896 59.0331 29.5177 60.5328 29.5177C62.1098 29.5177 63.0766 30.413 63.2014 31.8175H57.785Z" fill="#4DA8BF"/>
<path d="M68.3542 29.7959C68.6356 29.0084 69.3527 28.2053 70.6642 28.2053C71.1932 28.2053 71.4606 28.5461 71.3972 29.0398L71.3814 29.1632C71.3358 29.6568 71.0386 29.8429 70.5236 29.8429C69.0575 29.8723 68.3542 30.9223 68.3542 32.7755V36.3721C68.3542 36.8657 68.0729 37.1439 67.5737 37.1439H67.3875C66.8882 37.1439 66.6069 36.8657 66.6069 36.3721V29.0868C66.6069 28.5931 66.8882 28.315 67.3875 28.315H67.5737C68.0729 28.315 68.3542 28.5775 68.3542 29.0554V29.7959Z" fill="#4DA8BF"/>
<path fill-rule="evenodd" clip-rule="evenodd" d="M80.0586 28.313H79.8724C79.3732 28.313 79.0919 28.5912 79.0919 29.0848V30.0427C78.5768 28.8223 77.3287 28.1445 75.9221 28.1445C73.7052 28.1445 71.8311 29.6882 71.8311 32.7284C71.8311 35.7687 73.7211 37.3437 75.936 37.3437C77.3247 37.3437 78.5907 36.6483 79.0899 35.4611V36.3564C79.0899 36.85 79.3712 37.1282 79.8704 37.1282H80.0586C80.5579 37.1282 80.8392 36.85 80.8392 36.3564V29.0848C80.8392 28.5912 80.5579 28.313 80.0586 28.313ZM76.3758 35.8627C74.7057 35.8627 73.5824 34.6893 73.5824 32.7284C73.5824 30.7675 74.7057 29.6098 76.3461 29.6098C77.9864 29.6098 79.1394 30.7989 79.1394 32.7284C79.1394 34.658 78.0161 35.8627 76.3758 35.8627Z" fill="#4DA8BF"/>
<path fill-rule="evenodd" clip-rule="evenodd" d="M84.7281 29.982C85.1975 28.8539 86.3977 28.1292 87.8969 28.1289C89.9886 28.1293 91.9869 29.532 91.9869 32.7128C91.9869 35.8941 89.9741 37.283 87.8821 37.283C86.3824 37.283 85.1957 36.5425 84.7281 35.4161V39.2282C84.7281 39.7218 84.4468 40 83.9476 40H83.7594C83.2601 40 82.9788 39.7218 82.9788 39.2282V29.0868C82.9788 28.5931 83.2601 28.315 83.7594 28.315H83.9476C84.4468 28.315 84.7281 28.5931 84.7281 29.0868V29.982ZM84.6806 32.7128C84.6806 34.658 85.8039 35.8314 87.4442 35.8314C89.1163 35.8314 90.2396 34.658 90.2396 32.7128C90.2396 30.7675 89.148 29.5785 87.4759 29.5785C85.8039 29.5785 84.6806 30.7675 84.6806 32.7128Z" fill="#4DA8BF"/>
<path fill-rule="evenodd" clip-rule="evenodd" d="M97.9342 28.1445C95.2637 28.1445 93.4232 30.0114 93.4232 32.7284C93.4232 35.4455 95.2339 37.3123 98.0134 37.3123C99.6835 37.3123 100.949 36.7423 101.728 35.5983C102.025 35.1653 101.916 34.8715 101.369 34.7344L101.181 34.6874C100.788 34.5906 100.572 34.7797 100.284 35.032L100.284 35.0321C100.266 35.0484 100.247 35.0648 100.228 35.0815C100.213 35.0943 100.198 35.1073 100.183 35.1203C99.6201 35.6139 99.0119 35.8608 98.0432 35.8608C96.3097 35.8608 95.234 34.8891 95.1706 33.1751H101.508C102.007 33.1751 102.305 32.9126 102.289 32.4032C102.18 29.8566 100.524 28.1426 97.9322 28.1426L97.9342 28.1445ZM95.2181 31.8175C95.4222 30.2896 96.4662 29.5177 97.9659 29.5177C99.5429 29.5177 100.51 30.413 100.636 31.8175H95.2181Z" fill="#4DA8BF"/>
<path d="M111.154 28.313H111.342L111.338 28.3111C111.838 28.3111 112.119 28.5892 112.119 29.0829V36.3701C112.119 36.8638 111.838 37.1419 111.338 37.1419H111.15C110.651 37.1419 110.37 36.8638 110.37 36.3701V35.4925C109.963 36.517 108.951 37.2967 107.451 37.2967C104.985 37.2967 103.846 35.8921 103.846 33.0987V29.0848C103.846 28.5912 104.127 28.313 104.626 28.313H104.815C105.314 28.313 105.595 28.5912 105.595 29.0848V32.9596C105.595 34.8892 106.314 35.8001 108 35.8001C109.686 35.8001 110.374 34.705 110.374 32.7598V29.0848C110.374 28.5912 110.655 28.313 111.154 28.313Z" fill="#4DA8BF"/>
<path d="M118.383 35.8784C117.024 35.8784 116.541 35.2457 116.541 33.4239V29.6568H118.399C118.898 29.6568 119.18 29.41 119.18 28.9771C119.18 28.5442 118.898 28.313 118.399 28.313H116.541V27.1866C116.541 26.6459 116.228 26.3834 115.683 26.5069L115.465 26.5539C115.011 26.6459 114.778 26.9241 114.778 27.3864V28.313H114.138C113.716 28.313 113.482 28.5442 113.482 28.9771C113.482 29.41 113.763 29.6568 114.263 29.6568H114.778V33.6237C114.778 36.325 115.824 37.2673 118.118 37.2673C118.258 37.2673 118.415 37.2653 118.571 37.2516C119.067 37.2046 119.277 36.9343 119.227 36.4641C119.184 36.0469 118.869 35.8784 118.383 35.8784Z" fill="#4DA8BF"/>
<path d="M120.481 26.1993C120.481 25.6116 120.919 25.2727 121.511 25.2727C122.058 25.2727 122.542 25.6116 122.542 26.1993C122.542 26.787 122.058 27.1259 121.511 27.1259C120.919 27.1259 120.481 26.787 120.481 26.1993Z" fill="#4DA8BF"/>
<path d="M121.593 28.313H121.392C120.903 28.313 120.626 28.5912 120.626 29.0848V36.3701C120.626 36.8638 120.901 37.1419 121.392 37.1419H121.593C122.082 37.1419 122.359 36.8638 122.359 36.3701V29.0848C122.359 28.5912 122.084 28.313 121.593 28.313Z" fill="#4DA8BF"/>
<path d="M130.84 30.6441C130.341 29.9487 129.608 29.6098 128.639 29.6098L128.637 29.6059C127.013 29.6059 125.89 30.887 125.89 32.7245C125.89 34.562 127.015 35.8275 128.637 35.8275C129.574 35.8275 130.307 35.4729 130.807 34.8088C131.072 34.4229 131.354 34.2701 131.791 34.3465L131.853 34.3622C132.4 34.4699 132.633 34.7931 132.415 35.2417C131.73 36.5699 130.403 37.3104 128.56 37.3104C126.032 37.3104 124.142 35.3965 124.142 32.7265C124.142 30.0564 125.985 28.1426 128.56 28.1426C130.434 28.1426 131.698 28.8204 132.402 30.1328C132.667 30.6285 132.447 30.983 131.964 31.0751L131.839 31.1064C131.403 31.2005 131.106 31.03 130.84 30.6441Z" fill="#4DA8BF"/>
<path d="M142 34.5346C142 32.4851 140.08 32.1551 138.442 31.8737C137.225 31.6645 136.164 31.4822 136.164 30.6402C136.164 29.9468 136.928 29.5785 138.054 29.5785C138.727 29.5785 139.357 29.8038 139.94 30.1544L139.97 30.1727L140.012 30.1975C140.376 30.4166 140.589 30.5445 140.986 30.4267L141.142 30.3797C141.647 30.2308 141.774 29.8038 141.408 29.4237C140.631 28.6206 139.183 28.1583 138.024 28.1583C136.106 28.1583 134.444 29.0927 134.444 30.7205C134.444 32.6644 136.293 32.9931 137.901 33.279C139.138 33.499 140.233 33.6936 140.233 34.5796C140.233 35.3554 139.458 35.8138 138.161 35.8138C137.346 35.8138 136.5 35.61 135.878 35.0596C135.425 34.658 135.191 34.6482 134.848 34.7501L134.692 34.7971C134.171 34.9518 134.012 35.3691 134.333 35.7687C135.082 36.7051 136.665 37.2967 138.161 37.2967C140.395 37.2967 141.998 36.1742 141.998 34.5326L142 34.5346Z" fill="#4DA8BF"/>
</svg>
