<svg width="143" height="206" viewBox="0 0 143 206" fill="none" xmlns="http://www.w3.org/2000/svg">
<path d="M104.041 163.013C103.716 163.016 103.392 163.02 103.068 163.004V163.008C102.715 163.026 102.36 163.021 102.006 163.016C101.2 163.004 100.395 162.992 99.6104 163.247C98.0028 163.772 97.0118 164.903 97.0489 166.57C97.09 168.324 98.1014 169.509 99.9024 169.818C101.938 170.169 103.981 170.169 106.016 169.827C107.838 169.521 108.796 168.308 108.862 166.57C108.923 164.886 107.924 163.772 106.321 163.243C105.573 162.997 104.807 163.005 104.041 163.013Z" fill="#73BDB8"/>
<path fill-rule="evenodd" clip-rule="evenodd" d="M0.00922051 200.931C-0.0935714 203.155 0.654754 204.637 2.67359 205.5H135.197C137.278 204.546 137.898 202.912 137.812 200.667C137.512 192.965 131.99 185.498 124.211 182.782C122.533 182.196 122.04 181.363 122.027 179.675C122.014 177.801 122.075 175.92 122.137 174.039C122.279 169.731 122.42 165.424 121.653 161.209C120.946 157.312 122.352 155.22 124.864 152.702C135.065 142.474 140.879 130.005 142.713 115.658C142.749 115.388 142.822 115.122 142.894 114.858C142.93 114.727 142.966 114.597 142.997 114.466V101.695C142.966 101.565 142.93 101.434 142.894 101.303C142.822 101.039 142.749 100.773 142.713 100.503C140.485 83.6917 132.964 69.803 119.852 59.0676C110.572 51.4732 99.9558 46.8794 88.0649 45.3564C86.1858 45.117 85.9803 44.5226 86.7779 42.8882C87.9165 40.5572 88.9568 38.1759 89.9975 35.7936C90.3849 34.9067 90.7724 34.0197 91.1651 33.1351C91.1772 33.1076 91.1894 33.08 91.2016 33.0523C91.7008 31.9215 92.2941 30.5777 91.3871 29.6309C89.8503 28.0272 90.4954 26.6354 91.1802 25.1582C91.2356 25.0386 91.2912 24.9186 91.346 24.7978C91.5782 24.286 91.819 23.7773 92.0598 23.2685C92.6716 21.9758 93.2834 20.683 93.7554 19.3413C94.364 17.6202 95.1205 17.3354 96.7652 18.1568C99.0389 19.2918 101.037 18.6273 101.843 16.7865C102.707 14.8177 101.798 12.9397 99.4213 11.8872C95.2426 10.0313 91.0552 8.19272 86.8688 6.35454C86.0462 5.99339 85.2238 5.63225 84.4014 5.271C83.5327 4.89016 82.6654 4.50643 81.7981 4.12272C79.2252 2.98445 76.6528 1.84639 74.0482 0.78451C72.2308 0.0415765 70.4587 0.813401 69.7145 2.41896C68.9168 4.14009 69.5623 5.94377 71.3468 6.95498C71.6429 7.12421 71.9512 7.28517 72.2719 7.39661C73.5424 7.84237 73.7192 8.62245 73.1601 9.80289C72.0411 12.1706 70.9891 14.5699 69.9386 16.966L69.8707 17.1208C69.5459 17.8555 69.1553 18.4003 68.2754 18.5117C66.4375 18.7429 65.4877 19.9522 64.7681 21.5784C60.6051 30.9858 56.4142 40.3792 52.2234 49.7726C50.8265 52.9038 49.4295 56.035 48.0336 59.1667C47.1545 61.1395 46.2755 63.1122 45.3964 65.0849C41.6705 73.4461 37.9452 81.8062 34.2225 90.1717C32.9067 93.1311 32.9972 93.9236 35.3162 95.8799C36.1009 96.5427 35.8644 97.0595 35.5882 97.6631C35.5634 97.7173 35.5383 97.7723 35.5135 97.8281C35.0927 98.7766 34.6685 99.7238 34.2442 100.671C33.3504 102.667 32.4567 104.662 31.5951 106.669C30.4068 109.438 30.9331 110.928 33.5975 112.167C37.3186 113.896 41.0643 115.576 44.8265 117.215C47.5402 118.395 49.0081 117.821 50.2662 115.114C51.0861 113.348 51.8744 111.567 52.6629 109.786C53.1794 108.619 53.696 107.452 54.2217 106.289C54.2533 106.219 54.2837 106.148 54.3142 106.077C54.5732 105.47 54.833 104.862 55.8006 105.076C58.3128 105.637 59.534 104.209 60.4673 102.104C65.4643 90.8319 70.485 79.5716 75.506 68.3105C77.1035 64.7276 78.7011 61.1446 80.2979 57.5611C83.1141 51.2434 83.1267 51.2458 90.032 52.5461L90.1865 52.5752C118.824 57.9656 139.181 84.2241 135.978 113.991C134.486 127.855 128.68 139.56 118.771 149.289C117.661 150.378 117.069 150.275 115.983 149.235C111.374 144.81 105.807 143.102 99.5652 144.294C90.5812 146.011 84.7797 152.727 83.9655 162.24C83.8093 164.081 83.2624 164.684 81.4286 164.737C69.7761 165.08 59.1516 161.885 49.3905 155.612C49.3182 155.565 49.2343 155.525 49.1479 155.484C48.8207 155.327 48.4565 155.153 48.5476 154.543C50.0273 154.543 51.5056 154.545 52.983 154.548C56.5674 154.554 60.1466 154.56 63.7279 154.53C66.1497 154.514 67.5106 153.284 67.5476 150.911C67.6299 145.694 67.6216 140.477 67.5558 135.26C67.5229 132.969 66.3223 131.759 64.0486 131.442C63.3743 131.351 62.6835 131.351 62.001 131.351L6.70526 131.351C6.19691 131.351 5.68576 131.35 5.18171 131.396C2.34465 131.665 1.3044 132.771 1.29206 135.619C1.26739 140.427 1.27562 145.231 1.28795 150.036C1.29618 153.56 2.28298 154.551 5.81491 154.551C7.41024 154.552 9.00557 154.554 10.6009 154.556C18.5776 154.565 26.5542 154.574 34.5309 154.526C36.1303 154.514 37.372 154.906 38.6014 155.979C49.851 165.778 62.9878 170.867 77.8186 171.762C78.4442 171.799 79.1421 171.702 79.838 171.605C81.3372 171.397 82.8268 171.19 83.5626 172.324C84.2349 173.358 84.1017 174.926 83.9694 176.483C83.9148 177.125 83.8604 177.766 83.8628 178.366C83.8792 181.544 83.8628 181.548 80.7379 181.548C74.3398 181.55 67.9421 181.547 61.5447 181.545C48.0438 181.539 34.5442 181.534 21.0446 181.565C9.50308 181.594 0.519068 189.977 0.00922051 200.931ZM10.7695 198.471C10.5637 198.471 10.358 198.468 10.1524 198.464C9.74171 198.458 9.33161 198.451 8.92334 198.471C7.43902 198.541 7.31156 197.802 7.85019 196.679C10.0253 192.164 13.4667 189.324 18.5118 188.697C19.4987 188.573 20.5048 188.58 21.5077 188.587C21.7373 188.588 21.9668 188.59 22.1958 188.59C28.0758 188.589 33.9557 188.58 39.8356 188.571C54.6621 188.549 69.4886 188.526 84.315 188.627C95.9305 188.705 107.546 188.73 119.161 188.705C123.549 188.697 128.96 192.928 130.115 197.1C130.403 198.149 130.045 198.504 129.054 198.471C128.69 198.457 128.325 198.462 127.96 198.466C127.778 198.468 127.596 198.471 127.414 198.471H10.7695ZM55.9302 95.5376C55.7035 96.1531 55.4648 96.8011 54.5958 96.9118V96.9077C54.4441 96.8432 54.2903 96.7793 54.1355 96.715C53.8541 96.598 53.5695 96.4798 53.2883 96.3546C52.2764 95.9049 51.2671 95.4482 50.2578 94.9915C47.904 93.9263 45.5497 92.861 43.1613 91.8846C41.6687 91.2738 41.4631 90.667 42.1292 89.1853C48.4972 74.9808 54.8231 60.7552 61.149 46.5295C62.7307 42.9727 64.3124 39.4158 65.8947 35.8592C66.185 35.2073 66.4768 34.5563 66.7686 33.9053C67.626 31.9924 68.4832 30.08 69.2992 28.1492C69.7844 27.0018 70.2819 26.5684 71.5935 27.1999C75.1008 28.888 78.6656 30.4688 82.251 31.9836C83.6202 32.5614 83.6818 33.1929 83.1103 34.4724C77.3991 47.2518 71.7075 60.0428 66.016 72.8338C62.7095 80.2648 59.4029 87.6958 56.0925 95.1246C56.034 95.2559 55.9824 95.3959 55.9302 95.5376ZM105.86 181.538C104.868 181.541 103.875 181.544 102.883 181.544V181.54C101.927 181.54 100.971 181.537 100.015 181.535C97.6243 181.528 95.2335 181.521 92.8427 181.557C91.4611 181.577 90.8567 181.061 90.869 179.637C90.8885 177.473 90.8813 175.307 90.8742 173.141C90.8616 169.339 90.8491 165.538 90.9801 161.741C91.1898 155.616 96.7652 150.762 103.155 150.816C109.335 150.865 114.82 155.892 114.984 161.931C115.082 165.55 115.072 169.172 115.062 172.794C115.056 175.071 115.05 177.349 115.07 179.625C115.083 181.041 114.532 181.581 113.13 181.561C110.708 181.523 108.284 181.53 105.86 181.538ZM10.7818 138.396H34.5596L34.5514 138.392C36.4163 138.393 38.2812 138.396 40.146 138.399C46.2083 138.408 52.27 138.417 58.3292 138.363C60.1302 138.347 60.9977 138.78 60.8209 140.774C60.6906 142.247 60.7319 143.74 60.773 145.229C60.7812 145.526 60.7894 145.822 60.7962 146.119C60.825 147.25 60.3645 147.745 59.2256 147.724C55.9256 147.663 52.6248 147.666 49.3229 147.669C45.7296 147.673 42.1353 147.676 38.5397 147.596C35.7552 147.536 32.9576 147.591 30.1593 147.647C28.5198 147.679 26.8801 147.711 25.2426 147.72C23.1275 147.732 21.0124 147.728 18.8976 147.723C15.9558 147.717 13.0145 147.711 10.0746 147.749C8.55328 147.77 7.98176 147.204 8.06399 145.702C8.11931 144.688 8.10579 143.673 8.09226 142.657C8.08568 142.163 8.07909 141.669 8.08044 141.174C8.08866 138.409 8.09278 138.396 10.7818 138.396ZM87.259 14.2811C87.6989 14.4792 88.1389 14.7186 87.9539 15.639L87.9456 15.6349C87.7282 16.1308 87.4946 16.6596 87.2514 17.2101C86.8002 18.2313 86.316 19.3273 85.8405 20.4268C84.4864 23.5774 82.2798 24.4497 79.2207 23.0436C76.7372 21.9017 76.0506 20.054 77.1607 17.5005C77.4943 16.7336 77.8396 15.9718 78.185 15.21C78.6016 14.291 79.0182 13.372 79.4139 12.4444C79.7963 11.5488 80.2856 11.1195 81.293 11.5901C82.4646 12.1353 83.6449 12.6618 84.8253 13.1883C85.6374 13.5505 86.4496 13.9127 87.259 14.2811ZM45.6529 108.753C45.4515 109.187 45.2418 109.637 44.3948 109.575L44.3989 109.579C43.9708 109.377 43.5241 109.173 43.0657 108.964C41.8995 108.431 40.6579 107.864 39.4566 107.218C38.9383 106.936 39.1925 106.399 39.4065 105.947C39.4404 105.876 39.4732 105.806 39.5019 105.74C39.8094 105.033 40.123 104.327 40.4367 103.621C40.8988 102.582 41.3611 101.542 41.8044 100.494C42.1909 99.574 42.6679 99.3263 43.6917 99.7019C46.25 100.644 47.5277 101.106 47.8942 101.96C48.258 102.807 47.7234 104.04 46.6521 106.512C46.3273 107.263 45.9942 108.01 45.6529 108.753Z" fill="#73BDB8"/>
</svg>
